<svg width="897" height="1117" viewBox="0 0 897 1117" fill="none" xmlns="http://www.w3.org/2000/svg">
<path d="M0 -6H112.3V106.3H0V-6Z" fill="#3A86FF"/>
<path d="M0 106.3L0 50.15H112.3V106.3H0Z" fill="#FFBE0B"/>
<path d="M112.3 -6H224.6V106.3H112.3V-6Z" fill="#FF006E"/>
<path d="M224.6 -6C224.6 25.0108 199.461 50.15 168.45 50.15C137.439 50.15 112.3 25.0108 112.3 -6L168.45 -6L224.6 -6Z" fill="#FFBE0B"/>
<path d="M0 106.3H112.3V218.6H0V106.3Z" fill="#8338EC"/>
<path d="M112.3 106.3H224.6V218.6H112.3V106.3Z" fill="#FFBE0B"/>
<path d="M112.3 218.6C112.3 187.589 137.439 162.45 168.45 162.45C199.461 162.45 224.6 187.589 224.6 218.6H168.45H112.3Z" fill="#FF006E"/>
<path d="M0 218.6H224.6V443.2H0V218.6Z" fill="#3A86FF"/>
<path d="M0 218.6H112.3V443.2H0V218.6Z" fill="#FFBE0B"/>
<path d="M0 443.2H112.3V555.5H0V443.2Z" fill="#FF006E"/>
<path d="M0 443.2H112.3L0 555.5V443.2Z" fill="#3A86FF"/>
<path d="M112.3 443.2H224.6V555.5H112.3V443.2Z" fill="#8338EC"/>
<path d="M0 555.5H112.3V667.8H0V555.5Z" fill="#FB5607"/>
<path d="M112.3 667.8H0L112.3 555.5V667.8Z" fill="#FF006E"/>
<path d="M112.3 555.5H224.6V667.8H112.3V555.5Z" fill="#FF006E"/>
<path d="M224.6 667.8H168.45V555.5H224.6V667.8Z" fill="#3A86FF"/>
<path d="M0 667.8H224.6V892.4H0V667.8Z" fill="#FB5607"/>
<path d="M0 892.4C0 830.378 50.2784 780.1 112.3 780.1C174.322 780.1 224.6 830.378 224.6 892.4H112.3H0Z" fill="#8338EC"/>
<path d="M0 892.4H112.3V1004.7H0V892.4Z" fill="#FFBE0B"/>
<path d="M112.3 1004.7H0L112.3 892.4V1004.7Z" fill="#FB5607"/>
<path d="M112.3 892.4H224.6V1004.7H112.3V892.4Z" fill="#FFBE0B"/>
<path d="M224.6 1004.7H112.3L224.6 892.4V1004.7Z" fill="#3A86FF"/>
<path d="M0 1004.7H112.3V1117H0V1004.7Z" fill="#FF006E"/>
<path d="M0 1117L0 1004.7L112.3 1117H0Z" fill="#8338EC"/>
<path d="M112.3 1004.7H224.6V1117H112.3V1004.7Z" fill="#3A86FF"/>
<path d="M224.6 1004.7V1060.85H112.3V1004.7H224.6Z" fill="#FFBE0B"/>
<path d="M224.6 -6H336.9V106.3H224.6V-6Z" fill="#FB5607"/>
<path d="M224.6 -6H336.9L224.6 106.3V-6Z" fill="#8338EC"/>
<path d="M336.9 -6H449.2V106.3H336.9V-6Z" fill="#3A86FF"/>
<path d="M224.6 106.3H336.9V218.6H224.6V106.3Z" fill="#FB5607"/>
<path d="M224.6 218.6V162.45H336.9V218.6H224.6Z" fill="#3A86FF"/>
<path d="M336.9 106.3H449.2V218.6H336.9V106.3Z" fill="#FF006E"/>
<path d="M449.2 218.6C418.189 218.6 393.05 193.461 393.05 162.45C393.05 131.439 418.189 106.3 449.2 106.3V162.45V218.6Z" fill="#FB5607"/>
<path d="M224.6 218.6H336.9V330.9H224.6V218.6Z" fill="#FB5607"/>
<path d="M336.9 218.6C336.9 249.611 311.761 274.75 280.75 274.75C249.739 274.75 224.6 249.611 224.6 218.6H280.75H336.9Z" fill="#FFBE0B"/>
<path d="M336.9 218.6H449.2V330.9H336.9V218.6Z" fill="#FF006E"/>
<path d="M336.9 218.6H393.05V330.9H336.9V218.6Z" fill="#8338EC"/>
<path d="M224.6 330.9H336.9V443.2H224.6V330.9Z" fill="#FF006E"/>
<path d="M224.6 443.2V330.9L336.9 443.2H224.6Z" fill="#3A86FF"/>
<path d="M336.9 330.9H449.2V443.2H336.9V330.9Z" fill="#FB5607"/>
<path d="M336.9 443.2V387.05H449.2V443.2H336.9Z" fill="#8338EC"/>
<path d="M224.6 443.2H336.9V555.5H224.6V443.2Z" fill="#FB5607"/>
<path d="M336.9 555.5C305.889 555.5 280.75 530.361 280.75 499.35C280.75 468.339 305.889 443.2 336.9 443.2V499.35V555.5Z" fill="#FFBE0B"/>
<path d="M336.9 443.2H449.2V555.5H336.9V443.2Z" fill="#FFBE0B"/>
<path d="M449.2 555.5H393.05V443.2H449.2V555.5Z" fill="#FB5607"/>
<path d="M224.6 555.5H336.9V667.8H224.6V555.5Z" fill="#FF006E"/>
<path d="M336.9 555.5C336.9 586.511 311.761 611.65 280.75 611.65C249.739 611.65 224.6 586.511 224.6 555.5H280.75H336.9Z" fill="#8338EC"/>
<path d="M336.9 555.5H449.2V667.8H336.9V555.5Z" fill="#FF006E"/>
<path d="M224.6 667.8H336.9V780.1H224.6V667.8Z" fill="#FFBE0B"/>
<path d="M336.9 667.8C336.9 698.811 311.761 723.95 280.75 723.95C249.739 723.95 224.6 698.811 224.6 667.8H280.75H336.9Z" fill="#FF006E"/>
<path d="M336.9 667.8H449.2V780.1H336.9V667.8Z" fill="#FB5607"/>
<path d="M224.6 780.1H336.9V892.4H224.6V780.1Z" fill="#FFBE0B"/>
<path d="M336.9 892.4H280.75V780.1H336.9V892.4Z" fill="#FF006E"/>
<path d="M336.9 780.1H449.2V892.4H336.9V780.1Z" fill="#FF006E"/>
<path d="M224.6 892.4H449.2V1117H224.6V892.4Z" fill="#3A86FF"/>
<path d="M224.6 1117V1004.7H449.2V1117H224.6Z" fill="#8338EC"/>
<path d="M449.2 -6H561.5V106.3H449.2V-6Z" fill="#FFBE0B"/>
<path d="M561.5 -6H673.8V106.3H561.5V-6Z" fill="#8338EC"/>
<path d="M673.8 -6V50.15H561.5V-6L673.8 -6Z" fill="#FB5607"/>
<path d="M449.2 106.3H561.5V218.6H449.2V106.3Z" fill="#3A86FF"/>
<path d="M561.5 106.3H673.8V218.6H561.5V106.3Z" fill="#3A86FF"/>
<path d="M449.2 218.6H561.5V330.9H449.2V218.6Z" fill="#FFBE0B"/>
<path d="M561.5 218.6V330.9L449.2 218.6H561.5Z" fill="#FF006E"/>
<path d="M561.5 218.6H673.8V330.9H561.5V218.6Z" fill="#8338EC"/>
<path d="M673.8 330.9H617.65V218.6H673.8V330.9Z" fill="#3A86FF"/>
<path d="M449.2 330.9H561.5V443.2H449.2V330.9Z" fill="#3A86FF"/>
<path d="M561.5 443.2C530.489 443.2 505.35 418.061 505.35 387.05C505.35 356.039 530.489 330.9 561.5 330.9V387.05V443.2Z" fill="#FFBE0B"/>
<path d="M561.5 330.9H673.8V443.2H561.5V330.9Z" fill="#8338EC"/>
<path d="M449.2 443.2H561.5V555.5H449.2V443.2Z" fill="#3A86FF"/>
<path d="M449.2 443.2C480.211 443.2 505.35 468.339 505.35 499.35C505.35 530.361 480.211 555.5 449.2 555.5V499.35V443.2Z" fill="#FF006E"/>
<path d="M561.5 443.2H673.8V555.5H561.5V443.2Z" fill="#3A86FF"/>
<path d="M449.2 555.5H561.5V667.8H449.2V555.5Z" fill="#FF006E"/>
<path d="M561.5 555.5H673.8V667.8H561.5V555.5Z" fill="#8338EC"/>
<path d="M673.8 667.8H561.5L673.8 555.5V667.8Z" fill="#FFBE0B"/>
<path d="M449.2 667.8H673.8V892.4H449.2V667.8Z" fill="#FB5607"/>
<path d="M449.2 892.4V667.8L673.8 892.4H449.2Z" fill="#8338EC"/>
<path d="M449.2 892.4H673.8V1117H449.2V892.4Z" fill="#8338EC"/>
<path d="M673.8 -6H898.4V218.6H673.8V-6Z" fill="#FF006E"/>
<path d="M898.4 218.6H673.8L898.4 -6V218.6Z" fill="#FFBE0B"/>
<path d="M673.8 218.6H898.4V443.2H673.8V218.6Z" fill="#FFBE0B"/>
<path d="M673.8 443.2V218.6L898.4 443.2H673.8Z" fill="#FF006E"/>
<path d="M673.8 443.2H898.4V667.8H673.8V443.2Z" fill="#FF006E"/>
<path d="M898.4 667.8H786.1V443.2H898.4V667.8Z" fill="#FFBE0B"/>
<path d="M673.8 667.8H898.4V892.4H673.8V667.8Z" fill="#8338EC"/>
<path d="M673.8 892.4H898.4V1117H673.8V892.4Z" fill="#FF006E"/>
<path d="M673.8 892.4H898.4L673.8 1117V892.4Z" fill="#FB5607"/>
<path d="M0 -6H112.3V106.3H0V-6Z" fill="#8338EC"/>
<path d="M112.3 -6H224.6V106.3H112.3V-6Z" fill="#3A86FF"/>
<path d="M224.6 106.3H112.3L224.6 -6V106.3Z" fill="#8338EC"/>
<path d="M0 106.3H112.3V218.6H0V106.3Z" fill="#8338EC"/>
<path d="M112.3 218.6H0L112.3 106.3V218.6Z" fill="#FB5607"/>
<path d="M112.3 106.3H224.6V218.6H112.3V106.3Z" fill="#3A86FF"/>
<path d="M112.3 106.3H224.6L112.3 218.6V106.3Z" fill="#FF006E"/>
<path d="M0 218.6H224.6V443.2H0V218.6Z" fill="#FF006E"/>
<path d="M0 443.2H112.3V555.5H0V443.2Z" fill="#3A86FF"/>
<path d="M0 555.5L0 443.2L112.3 555.5H0Z" fill="#FFBE0B"/>
<path d="M112.3 443.2H224.6V555.5H112.3V443.2Z" fill="#FB5607"/>
<path d="M224.6 443.2V499.35H112.3V443.2H224.6Z" fill="#FFBE0B"/>
<path d="M0 555.5H112.3V667.8H0V555.5Z" fill="#FF006E"/>
<path d="M112.3 555.5H224.6V667.8H112.3V555.5Z" fill="#3A86FF"/>
<path d="M0 667.8H112.3V780.1H0V667.8Z" fill="#8338EC"/>
<path d="M0 780.1L0 667.8L112.3 780.1H0Z" fill="#FB5607"/>
<path d="M112.3 667.8H224.6V780.1H112.3V667.8Z" fill="#FB5607"/>
<path d="M112.3 667.8H224.6L112.3 780.1V667.8Z" fill="#8338EC"/>
<path d="M0 780.1H112.3V892.4H0V780.1Z" fill="#8338EC"/>
<path d="M112.3 780.1H224.6V892.4H112.3V780.1Z" fill="#FFBE0B"/>
<path d="M224.6 892.4H168.45V780.1H224.6V892.4Z" fill="#8338EC"/>
<path d="M0 892.4H224.6V1117H0V892.4Z" fill="#3A86FF"/>
<path d="M224.6 892.4V1117L0 892.4H224.6Z" fill="#FF006E"/>
<path d="M224.6 -6H449.2V218.6H224.6V-6Z" fill="#FB5607"/>
<path d="M449.2 218.6H224.6L449.2 -6V218.6Z" fill="#FF006E"/>
<path d="M224.6 218.6H449.2V443.2H224.6V218.6Z" fill="#3A86FF"/>
<path d="M224.6 218.6C286.622 218.6 336.9 268.878 336.9 330.9C336.9 392.922 286.622 443.2 224.6 443.2V330.9V218.6Z" fill="#FB5607"/>
<path d="M224.6 443.2H449.2V667.8H224.6V443.2Z" fill="#FB5607"/>
<path d="M449.2 443.2V555.5H224.6V443.2H449.2Z" fill="#FFBE0B"/>
<path d="M224.6 667.8H449.2V892.4H224.6V667.8Z" fill="#FFBE0B"/>
<path d="M224.6 892.4C224.6 830.378 274.878 780.1 336.9 780.1C398.922 780.1 449.2 830.378 449.2 892.4H336.9H224.6Z" fill="#FF006E"/>
<path d="M224.6 892.4H449.2V1117H224.6V892.4Z" fill="#3A86FF"/>
<path d="M449.2 -6H561.5V106.3H449.2V-6Z" fill="#3A86FF"/>
<path d="M561.5 -6V106.3L449.2 -6L561.5 -6Z" fill="#FF006E"/>
<path d="M561.5 -6H673.8V106.3H561.5V-6Z" fill="#FB5607"/>
<path d="M673.8 -6C673.8 25.0108 648.661 50.15 617.65 50.15C586.639 50.15 561.5 25.0108 561.5 -6L617.65 -6L673.8 -6Z" fill="#8338EC"/>
<path d="M449.2 106.3H561.5V218.6H449.2V106.3Z" fill="#8338EC"/>
<path d="M561.5 106.3H673.8V218.6H561.5V106.3Z" fill="#8338EC"/>
<path d="M673.8 106.3C673.8 137.311 648.661 162.45 617.65 162.45C586.639 162.45 561.5 137.311 561.5 106.3H617.65H673.8Z" fill="#FFBE0B"/>
<path d="M449.2 218.6H673.8V443.2H449.2V218.6Z" fill="#FB5607"/>
<path d="M673.8 218.6C673.8 280.622 623.522 330.9 561.5 330.9C499.478 330.9 449.2 280.622 449.2 218.6H561.5H673.8Z" fill="#FFBE0B"/>
<path d="M449.2 443.2H561.5V555.5H449.2V443.2Z" fill="#FB5607"/>
<path d="M449.2 443.2C480.211 443.2 505.35 468.339 505.35 499.35C505.35 530.361 480.211 555.5 449.2 555.5V499.35V443.2Z" fill="#3A86FF"/>
<path d="M561.5 443.2H673.8V555.5H561.5V443.2Z" fill="#FB5607"/>
<path d="M561.5 555.5V499.35H673.8V555.5H561.5Z" fill="#FFBE0B"/>
<path d="M449.2 555.5H561.5V667.8H449.2V555.5Z" fill="#8338EC"/>
<path d="M561.5 667.8C530.489 667.8 505.35 642.661 505.35 611.65C505.35 580.639 530.489 555.5 561.5 555.5V611.65V667.8Z" fill="#3A86FF"/>
<path d="M561.5 555.5H673.8V667.8H561.5V555.5Z" fill="#3A86FF"/>
<path d="M673.8 667.8H561.5L673.8 555.5V667.8Z" fill="#FB5607"/>
<path d="M449.2 667.8H673.8V892.4H449.2V667.8Z" fill="#FFBE0B"/>
<path d="M449.2 667.8H561.5V892.4H449.2V667.8Z" fill="#FB5607"/>
<path d="M449.2 892.4H673.8V1117H449.2V892.4Z" fill="#FB5607"/>
<path d="M673.8 -6H786.1V106.3H673.8V-6Z" fill="#3A86FF"/>
<path d="M786.1 -6V106.3L673.8 -6L786.1 -6Z" fill="#8338EC"/>
<path d="M786.1 -6H898.4V106.3H786.1V-6Z" fill="#FF006E"/>
<path d="M898.4 -6V106.3L786.1 -6L898.4 -6Z" fill="#8338EC"/>
<path d="M673.8 106.3H786.1V218.6H673.8V106.3Z" fill="#3A86FF"/>
<path d="M673.8 106.3H786.1L673.8 218.6V106.3Z" fill="#FF006E"/>
<path d="M786.1 106.3H898.4V218.6H786.1V106.3Z" fill="#8338EC"/>
<path d="M898.4 106.3V162.45H786.1V106.3H898.4Z" fill="#FF006E"/>
<path d="M673.8 218.6H898.4V443.2H673.8V218.6Z" fill="#FFBE0B"/>
<path d="M673.8 443.2H898.4V667.8H673.8V443.2Z" fill="#8338EC"/>
<path d="M673.8 667.8H786.1V780.1H673.8V667.8Z" fill="#FF006E"/>
<path d="M786.1 667.8C786.1 698.811 760.961 723.95 729.95 723.95C698.939 723.95 673.8 698.811 673.8 667.8H729.95H786.1Z" fill="#FFBE0B"/>
<path d="M786.1 667.8H898.4V780.1H786.1V667.8Z" fill="#3A86FF"/>
<path d="M898.4 667.8V723.95H786.1V667.8H898.4Z" fill="#FB5607"/>
<path d="M673.8 780.1H786.1V892.4H673.8V780.1Z" fill="#3A86FF"/>
<path d="M786.1 780.1C786.1 811.111 760.961 836.25 729.95 836.25C698.939 836.25 673.8 811.111 673.8 780.1H729.95H786.1Z" fill="#8338EC"/>
<path d="M786.1 780.1H898.4V892.4H786.1V780.1Z" fill="#FF006E"/>
<path d="M673.8 892.4H898.4V1117H673.8V892.4Z" fill="#3A86FF"/>
<path d="M673.8 892.4C735.822 892.4 786.1 942.678 786.1 1004.7C786.1 1066.72 735.822 1117 673.8 1117V1004.7V892.4Z" fill="#FFBE0B"/>
<path d="M0 -6H224.6V218.6H0V-6Z" fill="#8338EC"/>
<path d="M224.6 -6V218.6L0 -6L224.6 -6Z" fill="#FB5607"/>
<path d="M0 218.6H224.6V443.2H0V218.6Z" fill="#FF006E"/>
<path d="M224.6 443.2H0L224.6 218.6V443.2Z" fill="#8338EC"/>
<path d="M0 443.2H112.3V555.5H0V443.2Z" fill="#8338EC"/>
<path d="M112.3 443.2H224.6V555.5H112.3V443.2Z" fill="#FB5607"/>
<path d="M224.6 555.5H168.45V443.2H224.6V555.5Z" fill="#FFBE0B"/>
<path d="M0 555.5H112.3V667.8H0V555.5Z" fill="#FB5607"/>
<path d="M0 555.5H56.15V667.8H0V555.5Z" fill="#8338EC"/>
<path d="M112.3 555.5H224.6V667.8H112.3V555.5Z" fill="#FB5607"/>
<path d="M224.6 555.5V611.65H112.3V555.5H224.6Z" fill="#8338EC"/>
<path d="M0 667.8H224.6V892.4H0V667.8Z" fill="#FB5607"/>
<path d="M0 892.4H112.3V1004.7H0V892.4Z" fill="#8338EC"/>
<path d="M112.3 1004.7H0L112.3 892.4V1004.7Z" fill="#FF006E"/>
<path d="M112.3 892.4H224.6V1004.7H112.3V892.4Z" fill="#8338EC"/>
<path d="M224.6 892.4V1004.7L112.3 892.4H224.6Z" fill="#FB5607"/>
<path d="M0 1004.7H112.3V1117H0V1004.7Z" fill="#8338EC"/>
<path d="M0 1004.7H56.15V1117H0V1004.7Z" fill="#FFBE0B"/>
<path d="M112.3 1004.7H224.6V1117H112.3V1004.7Z" fill="#FFBE0B"/>
<path d="M224.6 1004.7V1060.85H112.3V1004.7H224.6Z" fill="#3A86FF"/>
<path d="M224.6 -6H336.9V106.3H224.6V-6Z" fill="#8338EC"/>
<path d="M336.9 -6H449.2V106.3H336.9V-6Z" fill="#8338EC"/>
<path d="M449.2 -6V50.15H336.9V-6L449.2 -6Z" fill="#FFBE0B"/>
<path d="M224.6 106.3H336.9V218.6H224.6V106.3Z" fill="#3A86FF"/>
<path d="M336.9 218.6C305.889 218.6 280.75 193.461 280.75 162.45C280.75 131.439 305.889 106.3 336.9 106.3V162.45V218.6Z" fill="#FB5607"/>
<path d="M336.9 106.3H449.2V218.6H336.9V106.3Z" fill="#FF006E"/>
<path d="M336.9 106.3H393.05V218.6H336.9V106.3Z" fill="#3A86FF"/>
<path d="M224.6 218.6H449.2V443.2H224.6V218.6Z" fill="#FFBE0B"/>
<path d="M224.6 218.6H336.9V443.2H224.6V218.6Z" fill="#3A86FF"/>
<path d="M224.6 443.2H449.2V667.8H224.6V443.2Z" fill="#8338EC"/>
<path d="M449.2 443.2V667.8L224.6 443.2H449.2Z" fill="#FB5607"/>
<path d="M224.6 667.8H449.2V892.4H224.6V667.8Z" fill="#FF006E"/>
<path d="M224.6 892.4C224.6 830.378 274.878 780.1 336.9 780.1C398.922 780.1 449.2 830.378 449.2 892.4H336.9H224.6Z" fill="#FB5607"/>
<path d="M224.6 892.4H336.9V1004.7H224.6V892.4Z" fill="#FF006E"/>
<path d="M336.9 1004.7H280.75V892.4H336.9V1004.7Z" fill="#8338EC"/>
<path d="M336.9 892.4H449.2V1004.7H336.9V892.4Z" fill="#8338EC"/>
<path d="M224.6 1004.7H336.9V1117H224.6V1004.7Z" fill="#FFBE0B"/>
<path d="M336.9 1117H224.6L336.9 1004.7V1117Z" fill="#FF006E"/>
<path d="M336.9 1004.7H449.2V1117H336.9V1004.7Z" fill="#8338EC"/>
<path d="M336.9 1117V1004.7L449.2 1117H336.9Z" fill="#3A86FF"/>
<path d="M449.2 -6H561.5V106.3H449.2V-6Z" fill="#FB5607"/>
<path d="M561.5 106.3C530.489 106.3 505.35 81.1608 505.35 50.15C505.35 19.1392 530.489 -6 561.5 -6V50.15V106.3Z" fill="#FFBE0B"/>
<path d="M561.5 -6H673.8V106.3H561.5V-6Z" fill="#8338EC"/>
<path d="M449.2 106.3H561.5V218.6H449.2V106.3Z" fill="#FF006E"/>
<path d="M449.2 218.6C449.2 187.589 474.339 162.45 505.35 162.45C536.361 162.45 561.5 187.589 561.5 218.6H505.35H449.2Z" fill="#8338EC"/>
<path d="M561.5 106.3H673.8V218.6H561.5V106.3Z" fill="#8338EC"/>
<path d="M561.5 106.3H617.65V218.6H561.5V106.3Z" fill="#3A86FF"/>
<path d="M449.2 218.6H561.5V330.9H449.2V218.6Z" fill="#3A86FF"/>
<path d="M561.5 218.6V330.9L449.2 218.6H561.5Z" fill="#8338EC"/>
<path d="M561.5 218.6H673.8V330.9H561.5V218.6Z" fill="#8338EC"/>
<path d="M673.8 218.6V274.75H561.5V218.6H673.8Z" fill="#FFBE0B"/>
<path d="M449.2 330.9H561.5V443.2H449.2V330.9Z" fill="#3A86FF"/>
<path d="M449.2 443.2V330.9L561.5 443.2H449.2Z" fill="#8338EC"/>
<path d="M561.5 330.9H673.8V443.2H561.5V330.9Z" fill="#FB5607"/>
<path d="M561.5 443.2V387.05H673.8V443.2H561.5Z" fill="#8338EC"/>
<path d="M449.2 443.2H561.5V555.5H449.2V443.2Z" fill="#FB5607"/>
<path d="M561.5 443.2C561.5 474.211 536.361 499.35 505.35 499.35C474.339 499.35 449.2 474.211 449.2 443.2H505.35H561.5Z" fill="#FFBE0B"/>
<path d="M561.5 443.2H673.8V555.5H561.5V443.2Z" fill="#FFBE0B"/>
<path d="M673.8 555.5H561.5L673.8 443.2V555.5Z" fill="#3A86FF"/>
<path d="M449.2 555.5H561.5V667.8H449.2V555.5Z" fill="#FB5607"/>
<path d="M449.2 667.8V555.5L561.5 667.8H449.2Z" fill="#FFBE0B"/>
<path d="M561.5 555.5H673.8V667.8H561.5V555.5Z" fill="#FF006E"/>
<path d="M561.5 667.8V611.65H673.8V667.8H561.5Z" fill="#8338EC"/>
<path d="M449.2 667.8H673.8V892.4H449.2V667.8Z" fill="#FFBE0B"/>
<path d="M449.2 667.8H561.5V892.4H449.2V667.8Z" fill="#3A86FF"/>
<path d="M449.2 892.4H673.8V1117H449.2V892.4Z" fill="#FFBE0B"/>
<path d="M673.8 892.4V1117L449.2 892.4H673.8Z" fill="#FF006E"/>
<path d="M673.8 -6H786.1V106.3H673.8V-6Z" fill="#FF006E"/>
<path d="M673.8 106.3V50.15H786.1V106.3H673.8Z" fill="#8338EC"/>
<path d="M786.1 -6H898.4V106.3H786.1V-6Z" fill="#3A86FF"/>
<path d="M898.4 -6C898.4 25.0108 873.261 50.15 842.25 50.15C811.239 50.15 786.1 25.0108 786.1 -6L842.25 -6L898.4 -6Z" fill="#FFBE0B"/>
<path d="M673.8 106.3H786.1V218.6H673.8V106.3Z" fill="#FB5607"/>
<path d="M786.1 218.6C755.089 218.6 729.95 193.461 729.95 162.45C729.95 131.439 755.089 106.3 786.1 106.3V162.45V218.6Z" fill="#FF006E"/>
<path d="M786.1 106.3H898.4V218.6H786.1V106.3Z" fill="#FFBE0B"/>
<path d="M673.8 218.6H898.4V443.2H673.8V218.6Z" fill="#3A86FF"/>
<path d="M898.4 443.2C836.378 443.2 786.1 392.922 786.1 330.9C786.1 268.878 836.378 218.6 898.4 218.6V330.9V443.2Z" fill="#FB5607"/>
<path d="M673.8 443.2H898.4V667.8H673.8V443.2Z" fill="#8338EC"/>
<path d="M673.8 443.2H786.1V667.8H673.8V443.2Z" fill="#FF006E"/>
<path d="M673.8 667.8H786.1V780.1H673.8V667.8Z" fill="#3A86FF"/>
<path d="M786.1 667.8C786.1 698.811 760.961 723.95 729.95 723.95C698.939 723.95 673.8 698.811 673.8 667.8H729.95H786.1Z" fill="#FB5607"/>
<path d="M786.1 667.8H898.4V780.1H786.1V667.8Z" fill="#FFBE0B"/>
<path d="M786.1 667.8H898.4L786.1 780.1V667.8Z" fill="#FF006E"/>
<path d="M673.8 780.1H786.1V892.4H673.8V780.1Z" fill="#8338EC"/>
<path d="M786.1 780.1C786.1 811.111 760.961 836.25 729.95 836.25C698.939 836.25 673.8 811.111 673.8 780.1H729.95H786.1Z" fill="#3A86FF"/>
<path d="M786.1 780.1H898.4V892.4H786.1V780.1Z" fill="#FF006E"/>
<path d="M898.4 780.1V836.25H786.1V780.1H898.4Z" fill="#FB5607"/>
<path d="M673.8 892.4H786.1V1004.7H673.8V892.4Z" fill="#3A86FF"/>
<path d="M673.8 892.4C704.811 892.4 729.95 917.539 729.95 948.55C729.95 979.561 704.811 1004.7 673.8 1004.7V948.55V892.4Z" fill="#FF006E"/>
<path d="M786.1 892.4H898.4V1004.7H786.1V892.4Z" fill="#FF006E"/>
<path d="M786.1 892.4H842.25V1004.7H786.1V892.4Z" fill="#FFBE0B"/>
<path d="M673.8 1004.7H786.1V1117H673.8V1004.7Z" fill="#3A86FF"/>
<path d="M786.1 1117C755.089 1117 729.95 1091.86 729.95 1060.85C729.95 1029.84 755.089 1004.7 786.1 1004.7V1060.85V1117Z" fill="#8338EC"/>
<path d="M786.1 1004.7H898.4V1117H786.1V1004.7Z" fill="#FF006E"/>
<path d="M0 -6H112.3V106.3H0V-6Z" fill="#FFBE0B"/>
<path d="M112.3 -6V106.3L0 -6L112.3 -6Z" fill="#8338EC"/>
<path d="M112.3 -6H224.6V106.3H112.3V-6Z" fill="#8338EC"/>
<path d="M224.6 -6C224.6 25.0108 199.461 50.15 168.45 50.15C137.439 50.15 112.3 25.0108 112.3 -6L168.45 -6L224.6 -6Z" fill="#FFBE0B"/>
<path d="M0 106.3H112.3V218.6H0V106.3Z" fill="#FFBE0B"/>
<path d="M0 106.3H112.3L0 218.6V106.3Z" fill="#FB5607"/>
<path d="M112.3 106.3H224.6V218.6H112.3V106.3Z" fill="#FF006E"/>
<path d="M224.6 218.6H112.3L224.6 106.3V218.6Z" fill="#FB5607"/>
<path d="M0 218.6H112.3V330.9H0V218.6Z" fill="#FB5607"/>
<path d="M112.3 218.6H224.6V330.9H112.3V218.6Z" fill="#FB5607"/>
<path d="M224.6 330.9H112.3L224.6 218.6V330.9Z" fill="#FF006E"/>
<path d="M0 330.9H112.3V443.2H0V330.9Z" fill="#FFBE0B"/>
<path d="M112.3 330.9V387.05H0L0 330.9H112.3Z" fill="#FF006E"/>
<path d="M112.3 330.9H224.6V443.2H112.3V330.9Z" fill="#3A86FF"/>
<path d="M112.3 443.2C112.3 412.189 137.439 387.05 168.45 387.05C199.461 387.05 224.6 412.189 224.6 443.2H168.45H112.3Z" fill="#8338EC"/>
<path d="M0 443.2H224.6V667.8H0V443.2Z" fill="#3A86FF"/>
<path d="M0 667.8H224.6V892.4H0V667.8Z" fill="#FB5607"/>
<path d="M0 892.4H112.3V1004.7H0V892.4Z" fill="#3A86FF"/>
<path d="M112.3 1004.7C81.2892 1004.7 56.15 979.561 56.15 948.55C56.15 917.539 81.2892 892.4 112.3 892.4V948.55V1004.7Z" fill="#8338EC"/>
<path d="M112.3 892.4H224.6V1004.7H112.3V892.4Z" fill="#FB5607"/>
<path d="M112.3 892.4H224.6L112.3 1004.7V892.4Z" fill="#3A86FF"/>
<path d="M0 1004.7H112.3V1117H0V1004.7Z" fill="#3A86FF"/>
<path d="M0 1117L0 1004.7L112.3 1117H0Z" fill="#8338EC"/>
<path d="M112.3 1004.7H224.6V1117H112.3V1004.7Z" fill="#3A86FF"/>
<path d="M224.6 1004.7V1117L112.3 1004.7H224.6Z" fill="#FF006E"/>
<path d="M224.6 -6H336.9V106.3H224.6V-6Z" fill="#8338EC"/>
<path d="M336.9 -6C336.9 25.0108 311.761 50.15 280.75 50.15C249.739 50.15 224.6 25.0108 224.6 -6L280.75 -6L336.9 -6Z" fill="#3A86FF"/>
<path d="M336.9 -6H449.2V106.3H336.9V-6Z" fill="#FFBE0B"/>
<path d="M449.2 106.3H336.9L449.2 -6V106.3Z" fill="#FF006E"/>
<path d="M224.6 106.3H336.9V218.6H224.6V106.3Z" fill="#3A86FF"/>
<path d="M336.9 106.3V218.6L224.6 106.3H336.9Z" fill="#FFBE0B"/>
<path d="M336.9 106.3H449.2V218.6H336.9V106.3Z" fill="#FFBE0B"/>
<path d="M224.6 218.6H449.2V443.2H224.6V218.6Z" fill="#8338EC"/>
<path d="M449.2 443.2C387.178 443.2 336.9 392.922 336.9 330.9C336.9 268.878 387.178 218.6 449.2 218.6V330.9V443.2Z" fill="#FB5607"/>
<path d="M224.6 443.2H336.9V555.5H224.6V443.2Z" fill="#8338EC"/>
<path d="M336.9 555.5H224.6L336.9 443.2V555.5Z" fill="#FFBE0B"/>
<path d="M336.9 443.2H449.2V555.5H336.9V443.2Z" fill="#FF006E"/>
<path d="M336.9 555.5C336.9 524.489 362.039 499.35 393.05 499.35C424.061 499.35 449.2 524.489 449.2 555.5H393.05H336.9Z" fill="#3A86FF"/>
<path d="M224.6 555.5H336.9V667.8H224.6V555.5Z" fill="#FF006E"/>
<path d="M336.9 667.8H280.75V555.5H336.9V667.8Z" fill="#FFBE0B"/>
<path d="M336.9 555.5H449.2V667.8H336.9V555.5Z" fill="#FF006E"/>
<path d="M336.9 555.5H449.2L336.9 667.8V555.5Z" fill="#FFBE0B"/>
<path d="M224.6 667.8H336.9V780.1H224.6V667.8Z" fill="#FF006E"/>
<path d="M336.9 667.8V723.95H224.6V667.8H336.9Z" fill="#FB5607"/>
<path d="M336.9 667.8H449.2V780.1H336.9V667.8Z" fill="#FF006E"/>
<path d="M224.6 780.1H336.9V892.4H224.6V780.1Z" fill="#8338EC"/>
<path d="M336.9 780.1H449.2V892.4H336.9V780.1Z" fill="#3A86FF"/>
<path d="M449.2 780.1V836.25H336.9V780.1H449.2Z" fill="#FFBE0B"/>
<path d="M224.6 892.4H336.9V1004.7H224.6V892.4Z" fill="#FFBE0B"/>
<path d="M336.9 892.4V1004.7L224.6 892.4H336.9Z" fill="#FF006E"/>
<path d="M336.9 892.4H449.2V1004.7H336.9V892.4Z" fill="#FF006E"/>
<path d="M336.9 1004.7V892.4L449.2 1004.7H336.9Z" fill="#8338EC"/>
<path d="M224.6 1004.7H336.9V1117H224.6V1004.7Z" fill="#FF006E"/>
<path d="M336.9 1117C305.889 1117 280.75 1091.86 280.75 1060.85C280.75 1029.84 305.889 1004.7 336.9 1004.7V1060.85V1117Z" fill="#FFBE0B"/>
<path d="M336.9 1004.7H449.2V1117H336.9V1004.7Z" fill="#FB5607"/>
<path d="M449.2 1004.7V1117L336.9 1004.7H449.2Z" fill="#3A86FF"/>
<path d="M449.2 -6H673.8V218.6H449.2V-6Z" fill="#3A86FF"/>
<path d="M673.8 -6V218.6L449.2 -6L673.8 -6Z" fill="#FFBE0B"/>
<path d="M449.2 218.6H673.8V443.2H449.2V218.6Z" fill="#FFBE0B"/>
<path d="M449.2 218.6C511.222 218.6 561.5 268.878 561.5 330.9C561.5 392.922 511.222 443.2 449.2 443.2V330.9V218.6Z" fill="#FB5607"/>
<path d="M449.2 443.2H673.8V667.8H449.2V443.2Z" fill="#FB5607"/>
<path d="M673.8 667.8C611.778 667.8 561.5 617.522 561.5 555.5C561.5 493.478 611.778 443.2 673.8 443.2V555.5V667.8Z" fill="#FF006E"/>
<path d="M449.2 667.8H561.5V780.1H449.2V667.8Z" fill="#8338EC"/>
<path d="M449.2 667.8H505.35V780.1H449.2V667.8Z" fill="#FB5607"/>
<path d="M561.5 667.8H673.8V780.1H561.5V667.8Z" fill="#8338EC"/>
<path d="M673.8 667.8V780.1L561.5 667.8H673.8Z" fill="#FF006E"/>
<path d="M449.2 780.1H561.5V892.4H449.2V780.1Z" fill="#8338EC"/>
<path d="M449.2 892.4C449.2 861.389 474.339 836.25 505.35 836.25C536.361 836.25 561.5 861.389 561.5 892.4H505.35H449.2Z" fill="#FF006E"/>
<path d="M561.5 780.1H673.8V892.4H561.5V780.1Z" fill="#FFBE0B"/>
<path d="M673.8 780.1V892.4L561.5 780.1H673.8Z" fill="#8338EC"/>
<path d="M449.2 892.4H673.8V1117H449.2V892.4Z" fill="#FB5607"/>
<path d="M673.8 -6H786.1V106.3H673.8V-6Z" fill="#FB5607"/>
<path d="M786.1 -6V50.15H673.8V-6L786.1 -6Z" fill="#FFBE0B"/>
<path d="M786.1 -6H898.4V106.3H786.1V-6Z" fill="#8338EC"/>
<path d="M786.1 -6H898.4L786.1 106.3V-6Z" fill="#FFBE0B"/>
<path d="M673.8 106.3H786.1V218.6H673.8V106.3Z" fill="#FB5607"/>
<path d="M786.1 106.3V218.6L673.8 106.3H786.1Z" fill="#FFBE0B"/>
<path d="M786.1 106.3H898.4V218.6H786.1V106.3Z" fill="#3A86FF"/>
<path d="M786.1 106.3H842.25V218.6H786.1V106.3Z" fill="#FFBE0B"/>
<path d="M673.8 218.6H786.1V330.9H673.8V218.6Z" fill="#3A86FF"/>
<path d="M673.8 330.9V218.6L786.1 330.9H673.8Z" fill="#FF006E"/>
<path d="M786.1 218.6H898.4V330.9H786.1V218.6Z" fill="#FFBE0B"/>
<path d="M786.1 330.9C786.1 299.889 811.239 274.75 842.25 274.75C873.261 274.75 898.4 299.889 898.4 330.9H842.25H786.1Z" fill="#FB5607"/>
<path d="M673.8 330.9H786.1V443.2H673.8V330.9Z" fill="#FF006E"/>
<path d="M786.1 443.2H673.8L786.1 330.9V443.2Z" fill="#8338EC"/>
<path d="M786.1 330.9H898.4V443.2H786.1V330.9Z" fill="#3A86FF"/>
<path d="M786.1 443.2C786.1 412.189 811.239 387.05 842.25 387.05C873.261 387.05 898.4 412.189 898.4 443.2H842.25H786.1Z" fill="#FB5607"/>
<path d="M673.8 443.2H786.1V555.5H673.8V443.2Z" fill="#8338EC"/>
<path d="M786.1 555.5H673.8L786.1 443.2V555.5Z" fill="#3A86FF"/>
<path d="M786.1 443.2H898.4V555.5H786.1V443.2Z" fill="#3A86FF"/>
<path d="M898.4 443.2V555.5L786.1 443.2H898.4Z" fill="#8338EC"/>
<path d="M673.8 555.5H786.1V667.8H673.8V555.5Z" fill="#8338EC"/>
<path d="M673.8 555.5C704.811 555.5 729.95 580.639 729.95 611.65C729.95 642.661 704.811 667.8 673.8 667.8V611.65V555.5Z" fill="#3A86FF"/>
<path d="M786.1 555.5H898.4V667.8H786.1V555.5Z" fill="#3A86FF"/>
<path d="M898.4 667.8C867.389 667.8 842.25 642.661 842.25 611.65C842.25 580.639 867.389 555.5 898.4 555.5V611.65V667.8Z" fill="#FFBE0B"/>
<path d="M673.8 667.8H898.4V892.4H673.8V667.8Z" fill="#8338EC"/>
<path d="M673.8 667.8H786.1V892.4H673.8V667.8Z" fill="#FFBE0B"/>
<path d="M673.8 892.4H786.1V1004.7H673.8V892.4Z" fill="#3A86FF"/>
<path d="M786.1 892.4V1004.7L673.8 892.4H786.1Z" fill="#FF006E"/>
<path d="M786.1 892.4H898.4V1004.7H786.1V892.4Z" fill="#8338EC"/>
<path d="M673.8 1004.7H786.1V1117H673.8V1004.7Z" fill="#FFBE0B"/>
<path d="M673.8 1004.7H729.95V1117H673.8V1004.7Z" fill="#FF006E"/>
<path d="M786.1 1004.7H898.4V1117H786.1V1004.7Z" fill="#3A86FF"/>
<path d="M898.4 1117H842.25V1004.7H898.4V1117Z" fill="#FF006E"/>
<path d="M0 -6H112.3V106.3H0V-6Z" fill="#3A86FF"/>
<path d="M0 106.3L0 50.15H112.3V106.3H0Z" fill="#FB5607"/>
<path d="M112.3 -6H224.6V106.3H112.3V-6Z" fill="#FF006E"/>
<path d="M112.3 106.3V-6L224.6 106.3H112.3Z" fill="#FB5607"/>
<path d="M0 106.3H112.3V218.6H0V106.3Z" fill="#3A86FF"/>
<path d="M112.3 106.3V218.6L0 106.3H112.3Z" fill="#8338EC"/>
<path d="M112.3 106.3H224.6V218.6H112.3V106.3Z" fill="#FB5607"/>
<path d="M112.3 218.6V162.45H224.6V218.6H112.3Z" fill="#FF006E"/>
<path d="M0 218.6H224.6V443.2H0V218.6Z" fill="#8338EC"/>
<path d="M0 443.2L0 330.9H224.6V443.2H0Z" fill="#FB5607"/>
<path d="M0 443.2H112.3V555.5H0V443.2Z" fill="#FFBE0B"/>
<path d="M112.3 555.5H56.15V443.2H112.3V555.5Z" fill="#FB5607"/>
<path d="M112.3 443.2H224.6V555.5H112.3V443.2Z" fill="#FF006E"/>
<path d="M224.6 443.2V555.5L112.3 443.2H224.6Z" fill="#8338EC"/>
<path d="M0 555.5H112.3V667.8H0V555.5Z" fill="#FF006E"/>
<path d="M112.3 667.8H0L112.3 555.5V667.8Z" fill="#FFBE0B"/>
<path d="M112.3 555.5H224.6V667.8H112.3V555.5Z" fill="#FFBE0B"/>
<path d="M112.3 667.8C112.3 636.789 137.439 611.65 168.45 611.65C199.461 611.65 224.6 636.789 224.6 667.8H168.45H112.3Z" fill="#FF006E"/>
<path d="M0 667.8H112.3V780.1H0V667.8Z" fill="#8338EC"/>
<path d="M112.3 667.8V723.95H0L0 667.8H112.3Z" fill="#FF006E"/>
<path d="M112.3 667.8H224.6V780.1H112.3V667.8Z" fill="#FF006E"/>
<path d="M224.6 667.8V723.95H112.3V667.8H224.6Z" fill="#3A86FF"/>
<path d="M0 780.1H112.3V892.4H0V780.1Z" fill="#3A86FF"/>
<path d="M0 780.1H112.3L0 892.4V780.1Z" fill="#FF006E"/>
<path d="M112.3 780.1H224.6V892.4H112.3V780.1Z" fill="#FB5607"/>
<path d="M224.6 780.1C224.6 811.111 199.461 836.25 168.45 836.25C137.439 836.25 112.3 811.111 112.3 780.1H168.45H224.6Z" fill="#3A86FF"/>
<path d="M0 892.4H112.3V1004.7H0V892.4Z" fill="#FFBE0B"/>
<path d="M112.3 892.4V948.55H0L0 892.4H112.3Z" fill="#FB5607"/>
<path d="M112.3 892.4H224.6V1004.7H112.3V892.4Z" fill="#FF006E"/>
<path d="M0 1004.7H112.3V1117H0V1004.7Z" fill="#3A86FF"/>
<path d="M112.3 1004.7V1060.85H0L0 1004.7H112.3Z" fill="#FFBE0B"/>
<path d="M112.3 1004.7H224.6V1117H112.3V1004.7Z" fill="#3A86FF"/>
<path d="M112.3 1004.7H168.45V1117H112.3V1004.7Z" fill="#8338EC"/>
<path d="M224.6 -6H336.9V106.3H224.6V-6Z" fill="#8338EC"/>
<path d="M336.9 -6V50.15H224.6V-6L336.9 -6Z" fill="#FB5607"/>
<path d="M336.9 -6H449.2V106.3H336.9V-6Z" fill="#FFBE0B"/>
<path d="M224.6 106.3H336.9V218.6H224.6V106.3Z" fill="#FF006E"/>
<path d="M224.6 218.6C224.6 187.589 249.739 162.45 280.75 162.45C311.761 162.45 336.9 187.589 336.9 218.6H280.75H224.6Z" fill="#3A86FF"/>
<path d="M336.9 106.3H449.2V218.6H336.9V106.3Z" fill="#FB5607"/>
<path d="M336.9 106.3H393.05V218.6H336.9V106.3Z" fill="#8338EC"/>
<path d="M224.6 218.6H336.9V330.9H224.6V218.6Z" fill="#FB5607"/>
<path d="M336.9 218.6H449.2V330.9H336.9V218.6Z" fill="#FF006E"/>
<path d="M449.2 218.6V330.9L336.9 218.6H449.2Z" fill="#8338EC"/>
<path d="M224.6 330.9H336.9V443.2H224.6V330.9Z" fill="#FFBE0B"/>
<path d="M224.6 330.9H336.9L224.6 443.2V330.9Z" fill="#FB5607"/>
<path d="M336.9 330.9H449.2V443.2H336.9V330.9Z" fill="#FFBE0B"/>
<path d="M336.9 330.9H393.05V443.2H336.9V330.9Z" fill="#FF006E"/>
<path d="M224.6 443.2H449.2V667.8H224.6V443.2Z" fill="#FF006E"/>
<path d="M449.2 667.8H224.6L449.2 443.2V667.8Z" fill="#FB5607"/>
<path d="M224.6 667.8H449.2V892.4H224.6V667.8Z" fill="#FFBE0B"/>
<path d="M224.6 892.4V780.1H449.2V892.4H224.6Z" fill="#8338EC"/>
<path d="M224.6 892.4H449.2V1117H224.6V892.4Z" fill="#8338EC"/>
<path d="M224.6 892.4C286.622 892.4 336.9 942.678 336.9 1004.7C336.9 1066.72 286.622 1117 224.6 1117V1004.7V892.4Z" fill="#3A86FF"/>
<path d="M449.2 -6H673.8V218.6H449.2V-6Z" fill="#FFBE0B"/>
<path d="M673.8 218.6H561.5V-6L673.8 -6V218.6Z" fill="#8338EC"/>
<path d="M449.2 218.6H673.8V443.2H449.2V218.6Z" fill="#3A86FF"/>
<path d="M673.8 218.6V443.2L449.2 218.6H673.8Z" fill="#FB5607"/>
<path d="M449.2 443.2H561.5V555.5H449.2V443.2Z" fill="#FB5607"/>
<path d="M561.5 555.5H505.35V443.2H561.5V555.5Z" fill="#FF006E"/>
<path d="M561.5 443.2H673.8V555.5H561.5V443.2Z" fill="#FFBE0B"/>
<path d="M561.5 443.2H673.8L561.5 555.5V443.2Z" fill="#FB5607"/>
<path d="M449.2 555.5H561.5V667.8H449.2V555.5Z" fill="#FFBE0B"/>
<path d="M561.5 555.5V667.8L449.2 555.5H561.5Z" fill="#FF006E"/>
<path d="M561.5 555.5H673.8V667.8H561.5V555.5Z" fill="#8338EC"/>
<path d="M673.8 667.8C642.789 667.8 617.65 642.661 617.65 611.65C617.65 580.639 642.789 555.5 673.8 555.5V611.65V667.8Z" fill="#3A86FF"/>
<path d="M449.2 667.8H673.8V892.4H449.2V667.8Z" fill="#3A86FF"/>
<path d="M673.8 892.4H561.5V667.8H673.8V892.4Z" fill="#FF006E"/>
<path d="M449.2 892.4H561.5V1004.7H449.2V892.4Z" fill="#8338EC"/>
<path d="M449.2 1004.7V892.4L561.5 1004.7H449.2Z" fill="#FF006E"/>
<path d="M561.5 892.4H673.8V1004.7H561.5V892.4Z" fill="#FF006E"/>
<path d="M673.8 1004.7C642.789 1004.7 617.65 979.561 617.65 948.55C617.65 917.539 642.789 892.4 673.8 892.4V948.55V1004.7Z" fill="#FFBE0B"/>
<path d="M449.2 1004.7H561.5V1117H449.2V1004.7Z" fill="#3A86FF"/>
<path d="M449.2 1117V1060.85H561.5V1117H449.2Z" fill="#FFBE0B"/>
<path d="M561.5 1004.7H673.8V1117H561.5V1004.7Z" fill="#FB5607"/>
<path d="M673.8 -6H786.1V106.3H673.8V-6Z" fill="#3A86FF"/>
<path d="M786.1 106.3H729.95V-6L786.1 -6V106.3Z" fill="#FFBE0B"/>
<path d="M786.1 -6H898.4V106.3H786.1V-6Z" fill="#FFBE0B"/>
<path d="M898.4 -6V106.3L786.1 -6L898.4 -6Z" fill="#8338EC"/>
<path d="M673.8 106.3H786.1V218.6H673.8V106.3Z" fill="#3A86FF"/>
<path d="M786.1 218.6H729.95V106.3H786.1V218.6Z" fill="#FF006E"/>
<path d="M786.1 106.3H898.4V218.6H786.1V106.3Z" fill="#3A86FF"/>
<path d="M786.1 218.6V106.3L898.4 218.6H786.1Z" fill="#FFBE0B"/>
<path d="M673.8 218.6H898.4V443.2H673.8V218.6Z" fill="#FB5607"/>
<path d="M898.4 443.2H673.8L898.4 218.6V443.2Z" fill="#FF006E"/>
<path d="M673.8 443.2H898.4V667.8H673.8V443.2Z" fill="#8338EC"/>
<path d="M673.8 667.8V555.5H898.4V667.8H673.8Z" fill="#FF006E"/>
<path d="M673.8 667.8H786.1V780.1H673.8V667.8Z" fill="#3A86FF"/>
<path d="M673.8 667.8H729.95V780.1H673.8V667.8Z" fill="#FFBE0B"/>
<path d="M786.1 667.8H898.4V780.1H786.1V667.8Z" fill="#FF006E"/>
<path d="M786.1 667.8H842.25V780.1H786.1V667.8Z" fill="#3A86FF"/>
<path d="M673.8 780.1H786.1V892.4H673.8V780.1Z" fill="#FFBE0B"/>
<path d="M673.8 892.4C673.8 861.389 698.939 836.25 729.95 836.25C760.961 836.25 786.1 861.389 786.1 892.4H729.95H673.8Z" fill="#FB5607"/>
<path d="M786.1 780.1H898.4V892.4H786.1V780.1Z" fill="#3A86FF"/>
<path d="M898.4 780.1V836.25H786.1V780.1H898.4Z" fill="#FFBE0B"/>
<path d="M673.8 892.4H786.1V1004.7H673.8V892.4Z" fill="#8338EC"/>
<path d="M786.1 892.4H898.4V1004.7H786.1V892.4Z" fill="#FFBE0B"/>
<path d="M673.8 1004.7H786.1V1117H673.8V1004.7Z" fill="#3A86FF"/>
<path d="M786.1 1117H673.8L786.1 1004.7V1117Z" fill="#8338EC"/>
<path d="M786.1 1004.7H898.4V1117H786.1V1004.7Z" fill="#FB5607"/>
<path d="M898.4 1117H842.25V1004.7H898.4V1117Z" fill="#8338EC"/>
<path d="M0 -6H224.6V218.6H0V-6Z" fill="#FF006E"/>
<path d="M0 218.6H224.6V443.2H0V218.6Z" fill="#FFBE0B"/>
<path d="M0 443.2H112.3V555.5H0V443.2Z" fill="#FB5607"/>
<path d="M112.3 443.2H224.6V555.5H112.3V443.2Z" fill="#FF006E"/>
<path d="M224.6 443.2V499.35H112.3V443.2H224.6Z" fill="#FB5607"/>
<path d="M0 555.5H112.3V667.8H0V555.5Z" fill="#FB5607"/>
<path d="M112.3 555.5V667.8L0 555.5H112.3Z" fill="#3A86FF"/>
<path d="M112.3 555.5H224.6V667.8H112.3V555.5Z" fill="#8338EC"/>
<path d="M224.6 555.5V611.65H112.3V555.5H224.6Z" fill="#FF006E"/>
<path d="M0 667.8H112.3V780.1H0V667.8Z" fill="#3A86FF"/>
<path d="M112.3 667.8C112.3 698.811 87.1608 723.95 56.15 723.95C25.1392 723.95 0 698.811 0 667.8H56.15H112.3Z" fill="#FF006E"/>
<path d="M112.3 667.8H224.6V780.1H112.3V667.8Z" fill="#3A86FF"/>
<path d="M112.3 667.8H168.45V780.1H112.3V667.8Z" fill="#FF006E"/>
<path d="M0 780.1H112.3V892.4H0V780.1Z" fill="#FFBE0B"/>
<path d="M112.3 892.4H0L112.3 780.1V892.4Z" fill="#FF006E"/>
<path d="M112.3 780.1H224.6V892.4H112.3V780.1Z" fill="#FF006E"/>
<path d="M112.3 780.1H168.45V892.4H112.3V780.1Z" fill="#FFBE0B"/>
<path d="M0 892.4H112.3V1004.7H0V892.4Z" fill="#3A86FF"/>
<path d="M0 1004.7L0 892.4L112.3 1004.7H0Z" fill="#FF006E"/>
<path d="M112.3 892.4H224.6V1004.7H112.3V892.4Z" fill="#8338EC"/>
<path d="M112.3 1004.7V948.55H224.6V1004.7H112.3Z" fill="#3A86FF"/>
<path d="M0 1004.7H112.3V1117H0V1004.7Z" fill="#8338EC"/>
<path d="M112.3 1004.7H224.6V1117H112.3V1004.7Z" fill="#FFBE0B"/>
<path d="M224.6 -6H336.9V106.3H224.6V-6Z" fill="#FB5607"/>
<path d="M336.9 -6C336.9 25.0108 311.761 50.15 280.75 50.15C249.739 50.15 224.6 25.0108 224.6 -6L280.75 -6L336.9 -6Z" fill="#8338EC"/>
<path d="M336.9 -6H449.2V106.3H336.9V-6Z" fill="#8338EC"/>
<path d="M449.2 106.3H336.9L449.2 -6V106.3Z" fill="#3A86FF"/>
<path d="M224.6 106.3H336.9V218.6H224.6V106.3Z" fill="#8338EC"/>
<path d="M336.9 106.3V162.45H224.6V106.3H336.9Z" fill="#FB5607"/>
<path d="M336.9 106.3H449.2V218.6H336.9V106.3Z" fill="#FF006E"/>
<path d="M449.2 218.6H336.9L449.2 106.3V218.6Z" fill="#8338EC"/>
<path d="M224.6 218.6H449.2V443.2H224.6V218.6Z" fill="#8338EC"/>
<path d="M224.6 218.6H336.9V443.2H224.6V218.6Z" fill="#FB5607"/>
<path d="M224.6 443.2H336.9V555.5H224.6V443.2Z" fill="#FF006E"/>
<path d="M336.9 555.5H280.75V443.2H336.9V555.5Z" fill="#FB5607"/>
<path d="M336.9 443.2H449.2V555.5H336.9V443.2Z" fill="#FB5607"/>
<path d="M336.9 555.5V499.35H449.2V555.5H336.9Z" fill="#8338EC"/>
<path d="M224.6 555.5H336.9V667.8H224.6V555.5Z" fill="#FFBE0B"/>
<path d="M224.6 555.5H336.9L224.6 667.8V555.5Z" fill="#8338EC"/>
<path d="M336.9 555.5H449.2V667.8H336.9V555.5Z" fill="#FB5607"/>
<path d="M449.2 555.5V611.65H336.9V555.5H449.2Z" fill="#3A86FF"/>
<path d="M224.6 667.8H336.9V780.1H224.6V667.8Z" fill="#FFBE0B"/>
<path d="M336.9 667.8V723.95H224.6V667.8H336.9Z" fill="#FB5607"/>
<path d="M336.9 667.8H449.2V780.1H336.9V667.8Z" fill="#FF006E"/>
<path d="M224.6 780.1H336.9V892.4H224.6V780.1Z" fill="#FB5607"/>
<path d="M336.9 892.4C305.889 892.4 280.75 867.261 280.75 836.25C280.75 805.239 305.889 780.1 336.9 780.1V836.25V892.4Z" fill="#3A86FF"/>
<path d="M336.9 780.1H449.2V892.4H336.9V780.1Z" fill="#3A86FF"/>
<path d="M449.2 780.1C449.2 811.111 424.061 836.25 393.05 836.25C362.039 836.25 336.9 811.111 336.9 780.1H393.05H449.2Z" fill="#FFBE0B"/>
<path d="M224.6 892.4H336.9V1004.7H224.6V892.4Z" fill="#FFBE0B"/>
<path d="M336.9 892.4H449.2V1004.7H336.9V892.4Z" fill="#FB5607"/>
<path d="M336.9 892.4H449.2L336.9 1004.7V892.4Z" fill="#FFBE0B"/>
<path d="M224.6 1004.7H336.9V1117H224.6V1004.7Z" fill="#FF006E"/>
<path d="M336.9 1004.7V1060.85H224.6V1004.7H336.9Z" fill="#3A86FF"/>
<path d="M336.9 1004.7H449.2V1117H336.9V1004.7Z" fill="#8338EC"/>
<path d="M449.2 -6H673.8V218.6H449.2V-6Z" fill="#FF006E"/>
<path d="M449.2 218.6H673.8V443.2H449.2V218.6Z" fill="#FFBE0B"/>
<path d="M449.2 443.2H561.5V555.5H449.2V443.2Z" fill="#FB5607"/>
<path d="M561.5 443.2H673.8V555.5H561.5V443.2Z" fill="#3A86FF"/>
<path d="M449.2 555.5H561.5V667.8H449.2V555.5Z" fill="#3A86FF"/>
<path d="M561.5 555.5V667.8L449.2 555.5H561.5Z" fill="#FFBE0B"/>
<path d="M561.5 555.5H673.8V667.8H561.5V555.5Z" fill="#8338EC"/>
<path d="M561.5 667.8C561.5 636.789 586.639 611.65 617.65 611.65C648.661 611.65 673.8 636.789 673.8 667.8H617.65H561.5Z" fill="#FF006E"/>
<path d="M449.2 667.8H561.5V780.1H449.2V667.8Z" fill="#3A86FF"/>
<path d="M449.2 667.8H561.5L449.2 780.1V667.8Z" fill="#FB5607"/>
<path d="M561.5 667.8H673.8V780.1H561.5V667.8Z" fill="#FFBE0B"/>
<path d="M561.5 667.8H673.8L561.5 780.1V667.8Z" fill="#3A86FF"/>
<path d="M449.2 780.1H561.5V892.4H449.2V780.1Z" fill="#FB5607"/>
<path d="M561.5 780.1V892.4L449.2 780.1H561.5Z" fill="#FFBE0B"/>
<path d="M561.5 780.1H673.8V892.4H561.5V780.1Z" fill="#FB5607"/>
<path d="M673.8 780.1V836.25H561.5V780.1H673.8Z" fill="#3A86FF"/>
<path d="M449.2 892.4H673.8V1117H449.2V892.4Z" fill="#3A86FF"/>
<path d="M449.2 1117V892.4L673.8 1117H449.2Z" fill="#FFBE0B"/>
<path d="M673.8 -6H786.1V106.3H673.8V-6Z" fill="#8338EC"/>
<path d="M786.1 -6V106.3L673.8 -6L786.1 -6Z" fill="#FFBE0B"/>
<path d="M786.1 -6H898.4V106.3H786.1V-6Z" fill="#3A86FF"/>
<path d="M786.1 -6H842.25V106.3H786.1V-6Z" fill="#FFBE0B"/>
<path d="M673.8 106.3H786.1V218.6H673.8V106.3Z" fill="#8338EC"/>
<path d="M786.1 106.3V218.6L673.8 106.3H786.1Z" fill="#FFBE0B"/>
<path d="M786.1 106.3H898.4V218.6H786.1V106.3Z" fill="#8338EC"/>
<path d="M786.1 106.3H898.4L786.1 218.6V106.3Z" fill="#3A86FF"/>
<path d="M673.8 218.6H786.1V330.9H673.8V218.6Z" fill="#FF006E"/>
<path d="M786.1 330.9C755.089 330.9 729.95 305.761 729.95 274.75C729.95 243.739 755.089 218.6 786.1 218.6V274.75V330.9Z" fill="#FB5607"/>
<path d="M786.1 218.6H898.4V330.9H786.1V218.6Z" fill="#FF006E"/>
<path d="M898.4 218.6V274.75H786.1V218.6H898.4Z" fill="#FFBE0B"/>
<path d="M673.8 330.9H786.1V443.2H673.8V330.9Z" fill="#FB5607"/>
<path d="M786.1 443.2H729.95V330.9H786.1V443.2Z" fill="#FF006E"/>
<path d="M786.1 330.9H898.4V443.2H786.1V330.9Z" fill="#8338EC"/>
<path d="M786.1 443.2C786.1 412.189 811.239 387.05 842.25 387.05C873.261 387.05 898.4 412.189 898.4 443.2H842.25H786.1Z" fill="#FFBE0B"/>
<path d="M673.8 443.2H786.1V555.5H673.8V443.2Z" fill="#FB5607"/>
<path d="M673.8 443.2C704.811 443.2 729.95 468.339 729.95 499.35C729.95 530.361 704.811 555.5 673.8 555.5V499.35V443.2Z" fill="#8338EC"/>
<path d="M786.1 443.2H898.4V555.5H786.1V443.2Z" fill="#FF006E"/>
<path d="M898.4 555.5H842.25V443.2H898.4V555.5Z" fill="#8338EC"/>
<path d="M673.8 555.5H786.1V667.8H673.8V555.5Z" fill="#8338EC"/>
<path d="M673.8 667.8V611.65H786.1V667.8H673.8Z" fill="#3A86FF"/>
<path d="M786.1 555.5H898.4V667.8H786.1V555.5Z" fill="#FFBE0B"/>
<path d="M898.4 667.8H842.25V555.5H898.4V667.8Z" fill="#8338EC"/>
<path d="M673.8 667.8H786.1V780.1H673.8V667.8Z" fill="#3A86FF"/>
<path d="M673.8 667.8H786.1L673.8 780.1V667.8Z" fill="#FFBE0B"/>
<path d="M786.1 667.8H898.4V780.1H786.1V667.8Z" fill="#3A86FF"/>
<path d="M786.1 667.8H898.4L786.1 780.1V667.8Z" fill="#8338EC"/>
<path d="M673.8 780.1H786.1V892.4H673.8V780.1Z" fill="#8338EC"/>
<path d="M673.8 780.1C704.811 780.1 729.95 805.239 729.95 836.25C729.95 867.261 704.811 892.4 673.8 892.4V836.25V780.1Z" fill="#3A86FF"/>
<path d="M786.1 780.1H898.4V892.4H786.1V780.1Z" fill="#FF006E"/>
<path d="M786.1 780.1H842.25V892.4H786.1V780.1Z" fill="#3A86FF"/>
<path d="M673.8 892.4H786.1V1004.7H673.8V892.4Z" fill="#FF006E"/>
<path d="M786.1 892.4C786.1 923.411 760.961 948.55 729.95 948.55C698.939 948.55 673.8 923.411 673.8 892.4H729.95H786.1Z" fill="#FFBE0B"/>
<path d="M786.1 892.4H898.4V1004.7H786.1V892.4Z" fill="#FB5607"/>
<path d="M673.8 1004.7H786.1V1117H673.8V1004.7Z" fill="#3A86FF"/>
<path d="M786.1 1117C755.089 1117 729.95 1091.86 729.95 1060.85C729.95 1029.84 755.089 1004.7 786.1 1004.7V1060.85V1117Z" fill="#FFBE0B"/>
<path d="M786.1 1004.7H898.4V1117H786.1V1004.7Z" fill="#FFBE0B"/>
<path d="M0 -6H224.6V218.6H0V-6Z" fill="#3A86FF"/>
<path d="M0 218.6H112.3V330.9H0V218.6Z" fill="#FFBE0B"/>
<path d="M112.3 330.9C81.2892 330.9 56.15 305.761 56.15 274.75C56.15 243.739 81.2892 218.6 112.3 218.6V274.75V330.9Z" fill="#8338EC"/>
<path d="M112.3 218.6H224.6V330.9H112.3V218.6Z" fill="#3A86FF"/>
<path d="M112.3 330.9V274.75H224.6V330.9H112.3Z" fill="#8338EC"/>
<path d="M0 330.9H112.3V443.2H0V330.9Z" fill="#8338EC"/>
<path d="M112.3 330.9H224.6V443.2H112.3V330.9Z" fill="#8338EC"/>
<path d="M112.3 330.9H224.6L112.3 443.2V330.9Z" fill="#3A86FF"/>
<path d="M0 443.2H112.3V555.5H0V443.2Z" fill="#FB5607"/>
<path d="M112.3 555.5H56.15V443.2H112.3V555.5Z" fill="#8338EC"/>
<path d="M112.3 443.2H224.6V555.5H112.3V443.2Z" fill="#3A86FF"/>
<path d="M112.3 443.2C143.311 443.2 168.45 468.339 168.45 499.35C168.45 530.361 143.311 555.5 112.3 555.5V499.35V443.2Z" fill="#FB5607"/>
<path d="M0 555.5H112.3V667.8H0V555.5Z" fill="#8338EC"/>
<path d="M112.3 555.5V611.65H0L0 555.5H112.3Z" fill="#FFBE0B"/>
<path d="M112.3 555.5H224.6V667.8H112.3V555.5Z" fill="#FF006E"/>
<path d="M112.3 667.8C112.3 636.789 137.439 611.65 168.45 611.65C199.461 611.65 224.6 636.789 224.6 667.8H168.45H112.3Z" fill="#FB5607"/>
<path d="M0 667.8H224.6V892.4H0V667.8Z" fill="#8338EC"/>
<path d="M0 892.4H112.3V1004.7H0V892.4Z" fill="#8338EC"/>
<path d="M112.3 1004.7H56.15V892.4H112.3V1004.7Z" fill="#3A86FF"/>
<path d="M112.3 892.4H224.6V1004.7H112.3V892.4Z" fill="#8338EC"/>
<path d="M0 1004.7H112.3V1117H0V1004.7Z" fill="#FFBE0B"/>
<path d="M112.3 1004.7H224.6V1117H112.3V1004.7Z" fill="#8338EC"/>
<path d="M224.6 1117H168.45V1004.7H224.6V1117Z" fill="#FB5607"/>
<path d="M224.6 -6H449.2V218.6H224.6V-6Z" fill="#3A86FF"/>
<path d="M224.6 218.6C224.6 156.578 274.878 106.3 336.9 106.3C398.922 106.3 449.2 156.578 449.2 218.6H336.9H224.6Z" fill="#FFBE0B"/>
<path d="M224.6 218.6H336.9V330.9H224.6V218.6Z" fill="#FFBE0B"/>
<path d="M336.9 330.9H280.75V218.6H336.9V330.9Z" fill="#FF006E"/>
<path d="M336.9 218.6H449.2V330.9H336.9V218.6Z" fill="#FB5607"/>
<path d="M224.6 330.9H336.9V443.2H224.6V330.9Z" fill="#3A86FF"/>
<path d="M336.9 443.2C305.889 443.2 280.75 418.061 280.75 387.05C280.75 356.039 305.889 330.9 336.9 330.9V387.05V443.2Z" fill="#FB5607"/>
<path d="M336.9 330.9H449.2V443.2H336.9V330.9Z" fill="#8338EC"/>
<path d="M449.2 443.2H393.05V330.9H449.2V443.2Z" fill="#FFBE0B"/>
<path d="M224.6 443.2H449.2V667.8H224.6V443.2Z" fill="#3A86FF"/>
<path d="M224.6 443.2C286.622 443.2 336.9 493.478 336.9 555.5C336.9 617.522 286.622 667.8 224.6 667.8V555.5V443.2Z" fill="#FB5607"/>
<path d="M224.6 667.8H449.2V892.4H224.6V667.8Z" fill="#FB5607"/>
<path d="M449.2 667.8V892.4L224.6 667.8H449.2Z" fill="#FFBE0B"/>
<path d="M224.6 892.4H336.9V1004.7H224.6V892.4Z" fill="#3A86FF"/>
<path d="M336.9 892.4H449.2V1004.7H336.9V892.4Z" fill="#3A86FF"/>
<path d="M336.9 892.4H449.2L336.9 1004.7V892.4Z" fill="#FF006E"/>
<path d="M224.6 1004.7H336.9V1117H224.6V1004.7Z" fill="#3A86FF"/>
<path d="M336.9 1004.7H449.2V1117H336.9V1004.7Z" fill="#FFBE0B"/>
<path d="M449.2 1004.7C449.2 1035.71 424.061 1060.85 393.05 1060.85C362.039 1060.85 336.9 1035.71 336.9 1004.7H393.05H449.2Z" fill="#8338EC"/>
<path d="M449.2 -6H561.5V106.3H449.2V-6Z" fill="#FFBE0B"/>
<path d="M561.5 -6H673.8V106.3H561.5V-6Z" fill="#3A86FF"/>
<path d="M673.8 106.3H617.65V-6L673.8 -6V106.3Z" fill="#FF006E"/>
<path d="M449.2 106.3H561.5V218.6H449.2V106.3Z" fill="#FFBE0B"/>
<path d="M449.2 106.3H561.5L449.2 218.6V106.3Z" fill="#8338EC"/>
<path d="M561.5 106.3H673.8V218.6H561.5V106.3Z" fill="#FB5607"/>
<path d="M449.2 218.6H561.5V330.9H449.2V218.6Z" fill="#3A86FF"/>
<path d="M449.2 330.9C449.2 299.889 474.339 274.75 505.35 274.75C536.361 274.75 561.5 299.889 561.5 330.9H505.35H449.2Z" fill="#FFBE0B"/>
<path d="M561.5 218.6H673.8V330.9H561.5V218.6Z" fill="#8338EC"/>
<path d="M449.2 330.9H561.5V443.2H449.2V330.9Z" fill="#3A86FF"/>
<path d="M449.2 443.2V387.05H561.5V443.2H449.2Z" fill="#FFBE0B"/>
<path d="M561.5 330.9H673.8V443.2H561.5V330.9Z" fill="#FFBE0B"/>
<path d="M561.5 330.9H673.8L561.5 443.2V330.9Z" fill="#FF006E"/>
<path d="M449.2 443.2H561.5V555.5H449.2V443.2Z" fill="#FFBE0B"/>
<path d="M449.2 443.2C480.211 443.2 505.35 468.339 505.35 499.35C505.35 530.361 480.211 555.5 449.2 555.5V499.35V443.2Z" fill="#FF006E"/>
<path d="M561.5 443.2H673.8V555.5H561.5V443.2Z" fill="#3A86FF"/>
<path d="M561.5 443.2H617.65V555.5H561.5V443.2Z" fill="#FB5607"/>
<path d="M449.2 555.5H561.5V667.8H449.2V555.5Z" fill="#8338EC"/>
<path d="M449.2 555.5H505.35V667.8H449.2V555.5Z" fill="#FF006E"/>
<path d="M561.5 555.5H673.8V667.8H561.5V555.5Z" fill="#FF006E"/>
<path d="M561.5 667.8V611.65H673.8V667.8H561.5Z" fill="#3A86FF"/>
<path d="M449.2 667.8H673.8V892.4H449.2V667.8Z" fill="#FB5607"/>
<path d="M449.2 892.4H673.8V1117H449.2V892.4Z" fill="#8338EC"/>
<path d="M673.8 -6H786.1V106.3H673.8V-6Z" fill="#FB5607"/>
<path d="M786.1 -6C786.1 25.0108 760.961 50.15 729.95 50.15C698.939 50.15 673.8 25.0108 673.8 -6L729.95 -6L786.1 -6Z" fill="#FFBE0B"/>
<path d="M786.1 -6H898.4V106.3H786.1V-6Z" fill="#3A86FF"/>
<path d="M673.8 106.3H786.1V218.6H673.8V106.3Z" fill="#3A86FF"/>
<path d="M786.1 106.3H898.4V218.6H786.1V106.3Z" fill="#3A86FF"/>
<path d="M786.1 106.3C817.111 106.3 842.25 131.439 842.25 162.45C842.25 193.461 817.111 218.6 786.1 218.6V162.45V106.3Z" fill="#8338EC"/>
<path d="M673.8 218.6H898.4V443.2H673.8V218.6Z" fill="#8338EC"/>
<path d="M673.8 443.2H786.1V555.5H673.8V443.2Z" fill="#FF006E"/>
<path d="M786.1 443.2V555.5L673.8 443.2H786.1Z" fill="#8338EC"/>
<path d="M786.1 443.2H898.4V555.5H786.1V443.2Z" fill="#8338EC"/>
<path d="M898.4 443.2V555.5L786.1 443.2H898.4Z" fill="#FFBE0B"/>
<path d="M673.8 555.5H786.1V667.8H673.8V555.5Z" fill="#FF006E"/>
<path d="M786.1 555.5V667.8L673.8 555.5H786.1Z" fill="#FFBE0B"/>
<path d="M786.1 555.5H898.4V667.8H786.1V555.5Z" fill="#8338EC"/>
<path d="M786.1 667.8V611.65H898.4V667.8H786.1Z" fill="#FB5607"/>
<path d="M673.8 667.8H786.1V780.1H673.8V667.8Z" fill="#FB5607"/>
<path d="M673.8 780.1V667.8L786.1 780.1H673.8Z" fill="#8338EC"/>
<path d="M786.1 667.8H898.4V780.1H786.1V667.8Z" fill="#FF006E"/>
<path d="M898.4 780.1H786.1L898.4 667.8V780.1Z" fill="#FFBE0B"/>
<path d="M673.8 780.1H786.1V892.4H673.8V780.1Z" fill="#FFBE0B"/>
<path d="M673.8 892.4V836.25H786.1V892.4H673.8Z" fill="#FF006E"/>
<path d="M786.1 780.1H898.4V892.4H786.1V780.1Z" fill="#FF006E"/>
<path d="M786.1 780.1H898.4L786.1 892.4V780.1Z" fill="#FB5607"/>
<path d="M673.8 892.4H898.4V1117H673.8V892.4Z" fill="#8338EC"/>
<path d="M673.8 892.4C735.822 892.4 786.1 942.678 786.1 1004.7C786.1 1066.72 735.822 1117 673.8 1117V1004.7V892.4Z" fill="#FFBE0B"/>
</svg>
