<svg xmlns="http://www.w3.org/2000/svg" xmlns:xlink="http://www.w3.org/1999/xlink" width="200" zoomAndPan="magnify" viewBox="0 0 150 44.999999" height="60" preserveAspectRatio="xMidYMid meet" version="1.0"><defs><g/><clipPath id="id1"><path d="M 35.640625 11.160156 L 54.390625 11.160156 L 54.390625 29.910156 L 35.640625 29.910156 Z M 35.640625 11.160156 " clip-rule="nonzero"/></clipPath><clipPath id="id2"><path d="M 114.726562 5.128906 L 119.976562 5.128906 L 119.976562 10.378906 L 114.726562 10.378906 Z M 114.726562 5.128906 " clip-rule="nonzero"/></clipPath></defs><g fill="#060606" fill-opacity="1"><g transform="translate(2.034363, 29.266203)"><g><path d="M 5.679688 -3.441406 L 5.679688 -17.207031 L 1.964844 -17.207031 L 1.964844 0 L 12.289062 0 L 12.289062 -3.441406 Z M 5.679688 -3.441406 "/></g></g></g><g fill="#060606" fill-opacity="1"><g transform="translate(14.865193, 29.266203)"><g><path d="M 10.128906 0.394531 C 15.363281 0.394531 19.273438 -3.464844 19.273438 -8.601562 C 19.273438 -13.714844 15.363281 -17.574219 10.128906 -17.574219 C 4.867188 -17.574219 0.933594 -13.691406 0.933594 -8.601562 C 0.933594 -3.492188 4.867188 0.394531 10.128906 0.394531 Z M 10.128906 -3.121094 C 7.054688 -3.121094 4.71875 -5.507812 4.71875 -8.601562 C 4.71875 -11.699219 7.054688 -14.058594 10.128906 -14.058594 C 13.199219 -14.058594 15.484375 -11.726562 15.484375 -8.601562 C 15.484375 -5.480469 13.199219 -3.121094 10.128906 -3.121094 Z M 10.128906 -3.121094 "/></g></g></g><g fill="#060606" fill-opacity="1"><g transform="translate(35.094645, 29.266203)"><g><path d="M 10.128906 0.394531 C 15.363281 0.394531 19.273438 -3.464844 19.273438 -8.601562 C 19.273438 -13.714844 15.363281 -17.574219 10.128906 -17.574219 C 4.867188 -17.574219 0.933594 -13.691406 0.933594 -8.601562 C 0.933594 -3.492188 4.867188 0.394531 10.128906 0.394531 Z M 10.128906 -3.121094 C 7.054688 -3.121094 4.71875 -5.507812 4.71875 -8.601562 C 4.71875 -11.699219 7.054688 -14.058594 10.128906 -14.058594 C 13.199219 -14.058594 15.484375 -11.726562 15.484375 -8.601562 C 15.484375 -5.480469 13.199219 -3.121094 10.128906 -3.121094 Z M 10.128906 -3.121094 "/></g></g></g><g fill="#060606" fill-opacity="1"><g transform="translate(55.324097, 29.266203)"><g><path d="M 8.578125 -17.207031 L 1.964844 -17.207031 L 1.964844 0 L 5.679688 0 L 5.679688 -5.359375 L 8.578125 -5.359375 C 12.042969 -5.359375 14.648438 -7.890625 14.648438 -11.28125 C 14.648438 -14.675781 12.019531 -17.207031 8.578125 -17.207031 Z M 8.40625 -8.800781 L 5.679688 -8.800781 L 5.679688 -13.742188 L 8.40625 -13.742188 C 9.882812 -13.742188 10.890625 -12.707031 10.890625 -11.28125 C 10.890625 -9.855469 9.882812 -8.800781 8.40625 -8.800781 Z M 8.40625 -8.800781 "/></g></g></g><g fill="#060606" fill-opacity="1"><g transform="translate(70.612942, 29.266203)"><g/></g></g><g fill="#060606" fill-opacity="1"><g transform="translate(76.487594, 29.266203)"><g><path d="M 13.371094 0 L 17.429688 0 L 10.472656 -17.207031 L 6.957031 -17.207031 L 0.195312 0 L 4.152344 0 L 5.335938 -3.246094 L 12.167969 -3.246094 Z M 8.75 -12.660156 L 11.011719 -6.488281 L 6.488281 -6.488281 Z M 8.75 -12.660156 "/></g></g></g><g fill="#060606" fill-opacity="1"><g transform="translate(94.136138, 29.266203)"><g><path d="M 9.511719 -8.972656 L 9.511719 -6.121094 L 14.675781 -6.121094 C 14.035156 -4.351562 12.09375 -3.171875 9.882812 -3.171875 C 6.785156 -3.171875 4.746094 -5.382812 4.746094 -8.578125 C 4.746094 -11.800781 6.832031 -14.011719 9.882812 -14.011719 C 12.042969 -14.011719 13.863281 -12.855469 14.601562 -11.011719 L 18.4375 -11.011719 C 17.625 -14.871094 14.085938 -17.574219 9.808594 -17.574219 C 4.71875 -17.574219 0.957031 -13.714844 0.957031 -8.578125 C 0.957031 -3.417969 4.816406 0.394531 9.882812 0.394531 C 15.042969 0.394531 18.65625 -3.589844 18.65625 -8.972656 Z M 9.511719 -8.972656 "/></g></g></g><g fill="#060606" fill-opacity="1"><g transform="translate(113.726506, 29.266203)"><g><path d="M 1.964844 0 L 5.679688 0 L 5.679688 -17.207031 L 1.964844 -17.207031 Z M 1.964844 0 "/></g></g></g><g fill="#060606" fill-opacity="1"><g transform="translate(121.395508, 29.266203)"><g><path d="M 5.679688 -3.441406 L 5.679688 -17.207031 L 1.964844 -17.207031 L 1.964844 0 L 12.289062 0 L 12.289062 -3.441406 Z M 5.679688 -3.441406 "/></g></g></g><g fill="#060606" fill-opacity="1"><g transform="translate(134.226343, 29.266203)"><g><path d="M 5.679688 -3.441406 L 5.679688 -6.980469 L 11.652344 -6.980469 L 11.652344 -10.347656 L 5.679688 -10.347656 L 5.679688 -13.765625 L 12.289062 -13.765625 L 12.289062 -17.207031 L 1.964844 -17.207031 L 1.964844 0 L 12.5625 0 L 12.5625 -3.441406 Z M 5.679688 -3.441406 "/></g></g></g><g clip-path="url(#id1)"><path fill="#dbd9c9" d="M 45.015625 11.160156 C 39.835938 11.160156 35.640625 15.359375 35.640625 20.535156 C 35.640625 25.714844 39.835938 29.910156 45.015625 29.910156 C 50.191406 29.910156 54.390625 25.714844 54.390625 20.535156 C 54.390625 15.359375 50.191406 11.160156 45.015625 11.160156 " fill-opacity="1" fill-rule="nonzero"/></g><g fill="#060606" fill-opacity="1"><g transform="translate(28.75175, 39.116694)"><g><path d="M 1 -0.515625 L 2.453125 -0.515625 L 2.453125 0 L 0.4375 0 L 0.4375 -3.34375 L 1 -3.34375 Z M 1 -0.515625 "/></g></g></g><g fill="#060606" fill-opacity="1"><g transform="translate(35.125449, 39.116694)"><g><path d="M 0.671875 -2.875 C 1.015625 -3.195312 1.4375 -3.359375 1.9375 -3.359375 C 2.4375 -3.359375 2.851562 -3.195312 3.1875 -2.875 C 3.53125 -2.550781 3.703125 -2.148438 3.703125 -1.671875 C 3.703125 -1.191406 3.53125 -0.785156 3.1875 -0.453125 C 2.851562 -0.128906 2.4375 0.03125 1.9375 0.03125 C 1.4375 0.03125 1.015625 -0.128906 0.671875 -0.453125 C 0.328125 -0.785156 0.15625 -1.191406 0.15625 -1.671875 C 0.15625 -2.148438 0.328125 -2.550781 0.671875 -2.875 Z M 1.9375 -2.859375 C 1.601562 -2.859375 1.316406 -2.742188 1.078125 -2.515625 C 0.847656 -2.285156 0.734375 -2.003906 0.734375 -1.671875 C 0.734375 -1.335938 0.851562 -1.054688 1.09375 -0.828125 C 1.332031 -0.597656 1.613281 -0.484375 1.9375 -0.484375 C 2.269531 -0.484375 2.550781 -0.597656 2.78125 -0.828125 C 3.007812 -1.054688 3.125 -1.335938 3.125 -1.671875 C 3.125 -2.003906 3.007812 -2.285156 2.78125 -2.515625 C 2.550781 -2.742188 2.269531 -2.859375 1.9375 -2.859375 Z M 1.9375 -2.859375 "/></g></g></g><g fill="#060606" fill-opacity="1"><g transform="translate(42.81732, 39.116694)"><g><path d="M 0.671875 -2.875 C 1.015625 -3.195312 1.4375 -3.359375 1.9375 -3.359375 C 2.4375 -3.359375 2.851562 -3.195312 3.1875 -2.875 C 3.53125 -2.550781 3.703125 -2.148438 3.703125 -1.671875 C 3.703125 -1.191406 3.53125 -0.785156 3.1875 -0.453125 C 2.851562 -0.128906 2.4375 0.03125 1.9375 0.03125 C 1.4375 0.03125 1.015625 -0.128906 0.671875 -0.453125 C 0.328125 -0.785156 0.15625 -1.191406 0.15625 -1.671875 C 0.15625 -2.148438 0.328125 -2.550781 0.671875 -2.875 Z M 1.9375 -2.859375 C 1.601562 -2.859375 1.316406 -2.742188 1.078125 -2.515625 C 0.847656 -2.285156 0.734375 -2.003906 0.734375 -1.671875 C 0.734375 -1.335938 0.851562 -1.054688 1.09375 -0.828125 C 1.332031 -0.597656 1.613281 -0.484375 1.9375 -0.484375 C 2.269531 -0.484375 2.550781 -0.597656 2.78125 -0.828125 C 3.007812 -1.054688 3.125 -1.335938 3.125 -1.671875 C 3.125 -2.003906 3.007812 -2.285156 2.78125 -2.515625 C 2.550781 -2.742188 2.269531 -2.859375 1.9375 -2.859375 Z M 1.9375 -2.859375 "/></g></g></g><g fill="#060606" fill-opacity="1"><g transform="translate(50.509191, 39.116694)"><g><path d="M 0.4375 -3.34375 L 1.78125 -3.34375 C 2.195312 -3.34375 2.519531 -3.242188 2.75 -3.046875 C 2.976562 -2.847656 3.09375 -2.566406 3.09375 -2.203125 C 3.09375 -1.828125 2.976562 -1.535156 2.75 -1.328125 C 2.519531 -1.117188 2.195312 -1.015625 1.78125 -1.015625 L 1 -1.015625 L 1 0 L 0.4375 0 Z M 1 -2.84375 L 1 -1.515625 L 1.75 -1.515625 C 2.289062 -1.515625 2.5625 -1.738281 2.5625 -2.1875 C 2.5625 -2.625 2.289062 -2.84375 1.75 -2.84375 Z M 1 -2.84375 "/></g></g></g><g fill="#060606" fill-opacity="1"><g transform="translate(57.546754, 39.116694)"><g/></g></g><g fill="#060606" fill-opacity="1"><g transform="translate(62.60228, 39.116694)"><g><path d="M 2.59375 -0.75 L 0.90625 -0.75 L 0.59375 0 L 0 0 L 1.484375 -3.34375 L 2.0625 -3.34375 L 3.53125 0 L 2.921875 0 Z M 2.390625 -1.25 L 1.75 -2.75 L 1.125 -1.25 Z M 2.390625 -1.25 "/></g></g></g><g fill="#060606" fill-opacity="1"><g transform="translate(69.950281, 39.116694)"><g><path d="M 2.734375 -1.640625 L 3.21875 -1.640625 L 3.21875 -0.40625 C 3.050781 -0.28125 2.847656 -0.175781 2.609375 -0.09375 C 2.378906 -0.0078125 2.148438 0.03125 1.921875 0.03125 C 1.429688 0.03125 1.015625 -0.128906 0.671875 -0.453125 C 0.328125 -0.785156 0.15625 -1.191406 0.15625 -1.671875 C 0.15625 -2.148438 0.328125 -2.550781 0.671875 -2.875 C 1.015625 -3.195312 1.441406 -3.359375 1.953125 -3.359375 C 2.191406 -3.359375 2.425781 -3.316406 2.65625 -3.234375 C 2.882812 -3.148438 3.078125 -3.035156 3.234375 -2.890625 L 2.921875 -2.484375 C 2.648438 -2.734375 2.328125 -2.859375 1.953125 -2.859375 C 1.609375 -2.859375 1.316406 -2.742188 1.078125 -2.515625 C 0.847656 -2.285156 0.734375 -2.003906 0.734375 -1.671875 C 0.734375 -1.335938 0.851562 -1.054688 1.09375 -0.828125 C 1.332031 -0.597656 1.617188 -0.484375 1.953125 -0.484375 C 2.210938 -0.484375 2.472656 -0.5625 2.734375 -0.71875 Z M 2.734375 -1.640625 "/></g></g></g><g fill="#060606" fill-opacity="1"><g transform="translate(77.350818, 39.116694)"><g><path d="M 1 0 L 0.4375 0 L 0.4375 -3.34375 L 1 -3.34375 Z M 1 0 "/></g></g></g><g fill="#060606" fill-opacity="1"><g transform="translate(82.616482, 39.116694)"><g><path d="M 1 -0.515625 L 2.453125 -0.515625 L 2.453125 0 L 0.4375 0 L 0.4375 -3.34375 L 1 -3.34375 Z M 1 -0.515625 "/></g></g></g><g fill="#060606" fill-opacity="1"><g transform="translate(88.990179, 39.116694)"><g><path d="M 2.828125 -2.84375 L 1 -2.84375 L 1 -1.9375 L 2.640625 -1.9375 L 2.640625 -1.421875 L 1 -1.421875 L 1 -0.5 L 2.890625 -0.5 L 2.890625 0 L 0.4375 0 L 0.4375 -3.34375 L 2.828125 -3.34375 Z M 2.828125 -2.84375 "/></g></g></g><g fill="#060606" fill-opacity="1"><g transform="translate(95.946546, 39.116694)"><g/></g></g><g fill="#060606" fill-opacity="1"><g transform="translate(101.00207, 39.116694)"><g><path d="M 3.34375 0 L 2.78125 0 L 1 -2.40625 L 1 0 L 0.4375 0 L 0.4375 -3.34375 L 1 -3.34375 L 2.78125 -0.9375 L 2.78125 -3.34375 L 3.34375 -3.34375 Z M 3.34375 0 "/></g></g></g><g fill="#060606" fill-opacity="1"><g transform="translate(108.607975, 39.116694)"><g><path d="M 0.671875 -2.875 C 1.015625 -3.195312 1.4375 -3.359375 1.9375 -3.359375 C 2.4375 -3.359375 2.851562 -3.195312 3.1875 -2.875 C 3.53125 -2.550781 3.703125 -2.148438 3.703125 -1.671875 C 3.703125 -1.191406 3.53125 -0.785156 3.1875 -0.453125 C 2.851562 -0.128906 2.4375 0.03125 1.9375 0.03125 C 1.4375 0.03125 1.015625 -0.128906 0.671875 -0.453125 C 0.328125 -0.785156 0.15625 -1.191406 0.15625 -1.671875 C 0.15625 -2.148438 0.328125 -2.550781 0.671875 -2.875 Z M 1.9375 -2.859375 C 1.601562 -2.859375 1.316406 -2.742188 1.078125 -2.515625 C 0.847656 -2.285156 0.734375 -2.003906 0.734375 -1.671875 C 0.734375 -1.335938 0.851562 -1.054688 1.09375 -0.828125 C 1.332031 -0.597656 1.613281 -0.484375 1.9375 -0.484375 C 2.269531 -0.484375 2.550781 -0.597656 2.78125 -0.828125 C 3.007812 -1.054688 3.125 -1.335938 3.125 -1.671875 C 3.125 -2.003906 3.007812 -2.285156 2.78125 -2.515625 C 2.550781 -2.742188 2.269531 -2.859375 1.9375 -2.859375 Z M 1.9375 -2.859375 "/></g></g></g><g fill="#060606" fill-opacity="1"><g transform="translate(116.299845, 39.116694)"><g><path d="M 3.875 0 L 3.296875 0 L 2.515625 -2.609375 L 1.703125 0 L 1.125 0 L 0.015625 -3.34375 L 0.625 -3.34375 L 1.4375 -0.625 L 2.25 -3.34375 L 2.796875 -3.34375 L 3.609375 -0.625 L 4.421875 -3.34375 L 5 -3.34375 Z M 3.875 0 "/></g></g></g><g clip-path="url(#id2)"><path fill="#dec2ba" d="M 117.351562 5.128906 C 115.902344 5.128906 114.726562 6.304688 114.726562 7.753906 C 114.726562 9.203125 115.902344 10.378906 117.351562 10.378906 C 118.800781 10.378906 119.976562 9.203125 119.976562 7.753906 C 119.976562 6.304688 118.800781 5.128906 117.351562 5.128906 " fill-opacity="1" fill-rule="nonzero"/></g></svg>